{"title":"Resident Evil Retribution 2012 720p TS NEW FULL SOURCE XviD AC3 ","uid":7656027,"size":3149212060,"categoryP":"video","categoryS":"hd___movies","magnet":"?xt=urn:btih:5fe0866ceae1be72ab6cb0292e838ec55ecfb1bd&amp;dn=Resident+Evil+Retribution+2012+720p+TS+NEW+FULL+SOURCE+XviD+AC3+&amp;tr=udp%3A%2F%2Ftracker.openbittorrent.com%3A80&amp;tr=udp%3A%2F%2Fopen.demonii.com%3A1337&amp;tr=udp%3A%2F%2Ftracker.coppersurfer.tk%3A6969&amp;tr=udp%3A%2F%2Fexodus.desync.com%3A6969","seeders":1,"leechers":0,"uploader":"Gh0stNet","files":3,"time":1348158049,"description":" &lt;a href=&quot;\nhttp://www.imdb.com/title/tt1855325/&quot; rel=&quot;nofollow&quot; target=&quot;_NEW&quot;&gt;\nhttp://www.imdb.com/title/tt1855325/&lt;/a&gt;\n\n\n\n\nResident Evil: Retribution (2012)\n\n95 min - Action | Horror | Sci-Fi\n\nRatings: 6.6/10 from 4,381 users\nReviews: 45 user\n\n\n\nPlot:Alice fights alongside a resistance movement in the continuing battle against the Umbrella Corporation and the undead.\n\n\n\nDirector:\nPaul W.S. Anderson\n\nWriter:\nPaul W.S. Anderson\n\nStars:\nMilla Jovovich, Sienna Guillory and Michelle Rodriguez\n\n\n\nFormat : AVI\nFormat/Info : Audio Video Interleave\nFormat profile : OpenDML\nFile size : 2.90 GiB\nDuration : 1h 25mn\nOverall bit rate : 4 856 Kbps\nWriting library : VirtualDub build 32842/release\n\nVideo\nID : 0\nFormat : MPEG-4 Visual\nFormat profile : Advanced Simple@L5\nFormat settings, BVOP : 2\nFormat settings, QPel : No\nFormat settings, GMC : No warppoints\nFormat settings, Matrix : Default (H.263)\nMuxing mode : Packed bitstream\nCodec ID : XVID\nCodec ID/Hint : XviD\nDuration : 1h 25mn\nBit rate : 4 461 Kbps\nWidth : 1 280 pixels\nHeight : 544 pixels\nDisplay aspect ratio : 2.35:1\nFrame rate : 25.000 fps\nColor space : YUV\nChroma subsampling : 4:2:0\nBit depth : 8 bits\nScan type : Progressive\nCompression mode : Lossy\nBits/(Pixel*Frame) : 0.256\nStream size : 2.67 GiB (92%)\nWriting library : XviD 64\n\nAudio\nID : 1\nFormat : AC-3\nFormat/Info : Audio Coding 3\nMode extension : CM (complete main)\nFormat settings, Endianness : Big\nCodec ID : 2000\nDuration : 1h 25mn\nBit rate mode : Constant\nBit rate : 384 Kbps\nChannel(s) : 2 channels\nChannel positions : Front: L R\nSampling rate : 48.0 KHz\nBit depth : 16 bits\nCompression mode : Lossy\nStream size : 235 MiB (8%)\nAlignment : Aligned on interleaves\nInterleave, duration : 40 ms (1.00 video frame)","torrent":{"xt":"urn:btih:5fe0866ceae1be72ab6cb0292e838ec55ecfb1bd","amp;dn":"Resident+Evil+Retribution+2012+720p+TS+NEW+FULL+SOURCE+XviD+AC3+","amp;tr":["udp%3A%2F%2Ftracker.openbittorrent.com%3A80","udp%3A%2F%2Fopen.demonii.com%3A1337","udp%3A%2F%2Ftracker.coppersurfer.tk%3A6969","udp%3A%2F%2Fexodus.desync.com%3A6969"],"infoHash":"5fe0866ceae1be72ab6cb0292e838ec55ecfb1bd","infoHashBuffer":{"type":"Buffer","data":[95,224,134,108,234,225,190,114,171,108,176,41,46,131,142,197,94,207,177,189]},"announce":[],"urlList":[]}}